<svg width="818" height="614" viewBox="0 0 818 614" style="fill:none;stroke:none;fill-rule:evenodd;clip-rule:evenodd;stroke-linecap:round;stroke-linejoin:round;stroke-miterlimit:1.5;" version="1.1" xmlns="http://www.w3.org/2000/svg" xmlns:xlink="http://www.w3.org/1999/xlink"><style class="text-font-style fontImports" data-font-family="Roboto">@import url('https://fonts.googleapis.com/css2?family=Roboto:wght@400;700&amp;display=block');</style><g id="items" style="isolation: isolate"><g id="blend" style="mix-blend-mode: normal"><g id="g-root-0.cu_sy_18i6nnexw59n2-fill" data-item-order="999849261" transform="translate(278.00885009765625, 207)"></g><g id="g-root-6.cu_sy_142d5iyxw5afb-fill" data-item-order="999849265" transform="translate(268.5610656738281, 145.5615234375)"></g><g id="g-root-5.cu_sy_142d5iyxw5afc-fill" data-item-order="999849269" transform="translate(193, 279)"></g><g id="g-root-4.cu_sy_zmjneixw5b7l-fill" data-item-order="999849273" transform="translate(268.5610656738281, 402)"></g><g id="g-root-3.cu_sy_qrj48qxw58ui-fill" data-item-order="999849277" transform="translate(422.50244140625, 402)"></g><g id="g-root-2.cu_sy_qrj48qxw58uj-fill" data-item-order="999849281" transform="translate(477.11767578125, 279)"></g><g id="g-root-1.cu_sy_mbpm4axw59ms-fill" data-item-order="999849285" transform="translate(422.50244140625, 145.5615234375)"></g><g id="g-root-book_9093qyxw5b7q-fill" data-item-order="1000000000" transform="translate(291, 171)"></g><g id="g-root-1_1qapvsqxw83rb-fill" data-item-order="1000000000" transform="translate(447, 171)"></g><g id="g-root-tx_aseguraq_zoffayxvzmru-fill" data-item-order="1000000000" transform="translate(537, 147)"><g id="tx_aseguraq_zoffayxvzmru-fill" stroke="none" fill="#484848"><g><text style="font: 15px Roboto, sans-serif; white-space: pre;" font-size="15px" font-family="Roboto, sans-serif"><tspan x="12" y="31" dominant-baseline="ideographic">Asegura que solo los </tspan><tspan x="12" y="49" dominant-baseline="ideographic">clientes que asistieron </tspan><tspan x="12" y="67" dominant-baseline="ideographic">puedan opinar</tspan></text></g></g></g><g id="g-root-tx_actualiz_1ursf96xvzo5q-fill" data-item-order="1000000000" transform="translate(15, 255)"><g id="tx_actualiz_1ursf96xvzo5q-fill" stroke="none" fill="#e0cb15"><g><text style="font: bold 20px Roboto, sans-serif; white-space: pre;" font-weight="bold" font-size="20px" font-family="Roboto, sans-serif"><tspan x="20.72" y="34" dominant-baseline="ideographic">Actualizaciones </tspan><tspan x="64.56" y="58" dominant-baseline="ideographic">Semanales</tspan></text></g></g></g><g id="g-root-tx_encuesta_v8lx6ixvznk3-fill" data-item-order="1000000000" transform="translate(615, 255)"><g id="tx_encuesta_v8lx6ixvznk3-fill" stroke="none" fill="#92bd39"><g><text style="font: bold 20px Roboto, sans-serif; white-space: pre;" font-weight="bold" font-size="20px" font-family="Roboto, sans-serif"><tspan x="12" y="34" dominant-baseline="ideographic">Encuestas </tspan><tspan x="12" y="58" dominant-baseline="ideographic">Personalizadas</tspan></text></g></g></g><g id="g-root-grea_v9us6yxwgjrf-fill" data-item-order="1000000000" transform="translate(345, 279)"></g><g id="g-root-tx_ofrecean_1upwzzuxvzp59-fill" data-item-order="1000000000" transform="translate(93, 147)"><g id="tx_ofrecean_1upwzzuxvzp59-fill" stroke="none" fill="#484848"><g><text style="font: 15px Roboto, sans-serif; white-space: pre;" font-size="15px" font-family="Roboto, sans-serif"><tspan x="54.19" y="31" dominant-baseline="ideographic">Ofrece análisis y </tspan><tspan x="44.64" y="49" dominant-baseline="ideographic">recomendaciones </tspan><tspan x="19.41" y="67" dominant-baseline="ideographic">impulsadas por datos</tspan></text></g></g></g><g id="g-root-tx_abordala_1cz9gl6xvzoco-fill" data-item-order="1000000000" transform="translate(537, 483)"><g id="tx_abordala_1cz9gl6xvzoco-fill" stroke="none" fill="#484848"><g><text style="font: 15px Roboto, sans-serif; white-space: pre;" font-size="15px" font-family="Roboto, sans-serif"><tspan x="12" y="28" dominant-baseline="ideographic">Aborda las </tspan><tspan x="12" y="46" dominant-baseline="ideographic">preocupaciones antes </tspan><tspan x="12" y="64" dominant-baseline="ideographic">de que se hagan </tspan><tspan x="12" y="82" dominant-baseline="ideographic">públicas</tspan></text></g></g></g><g id="g-root-2_1lpwenuxvy9sa-fill" data-item-order="1000000000" transform="translate(213, 303)"></g><g id="g-root-appr_1czvuiixvznk4-fill" data-item-order="1000000000" transform="translate(520, 303)"></g><g id="g-root-tx_encuesta_1cz9gl6xvzocp-fill" data-item-order="1000000000" transform="translate(615, 315)"><g id="tx_encuesta_1cz9gl6xvzocp-fill" stroke="none" fill="#484848"><g><text style="font: 15px Roboto, sans-serif; white-space: pre;" font-size="15px" font-family="Roboto, sans-serif"><tspan x="12" y="31" dominant-baseline="ideographic">Encuestas diseñadas </tspan><tspan x="12" y="49" dominant-baseline="ideographic">para evaluar áreas clave </tspan><tspan x="12" y="67" dominant-baseline="ideographic">del servicio</tspan></text></g></g></g><g id="g-root-tx_clientes_meuc6yxvznd6-fill" data-item-order="1000000000" transform="translate(537, 87)"><g id="tx_clientes_meuc6yxvznd6-fill" stroke="none" fill="#3cc583"><g><text style="font: bold 20px Roboto, sans-serif; white-space: pre;" font-weight="bold" font-size="20px" font-family="Roboto, sans-serif"><tspan x="12" y="34" dominant-baseline="ideographic">Clientes </tspan><tspan x="12" y="58" dominant-baseline="ideographic">Verificados</tspan></text></g></g></g><g id="g-root-tx_informes_zpodh6xvzoy0-fill" data-item-order="1000000000" transform="translate(81, 87)"><g id="tx_informes_zpodh6xvzoy0-fill" stroke="none" fill="#7f64ea"><g><text style="font: bold 20px Roboto, sans-serif; white-space: pre;" font-weight="bold" font-size="20px" font-family="Roboto, sans-serif"><tspan x="94.77" y="34" dominant-baseline="ideographic">Informes </tspan><tspan x="15.61" y="58" dominant-baseline="ideographic">Mensuales con IA</tspan></text></g></g></g><g id="g-root-tx_cortafue_vahcfuxvzmkh-fill" data-item-order="1000000000" transform="translate(537, 399)"><g id="tx_cortafue_vahcfuxvzmkh-fill" stroke="none" fill="#e55753"><g><text style="font: bold 20px Roboto, sans-serif; white-space: pre;" font-weight="bold" font-size="20px" font-family="Roboto, sans-serif"><tspan x="12" y="34" dominant-baseline="ideographic">Cortafuegos de </tspan><tspan x="12" y="58" dominant-baseline="ideographic">Comentarios </tspan><tspan x="12" y="82" dominant-baseline="ideographic">Negativos</tspan></text></g></g></g><g id="g-root-tx_redirecc_v8lx6ixvznk4-fill" data-item-order="1000000000" transform="translate(129, 423)"><g id="tx_redirecc_v8lx6ixvznk4-fill" stroke="none" fill="#1eabda"><g><text style="font: bold 20px Roboto, sans-serif; white-space: pre;" font-weight="bold" font-size="20px" font-family="Roboto, sans-serif"><tspan x="21.25" y="34" dominant-baseline="ideographic">Redirección </tspan><tspan x="26.59" y="58" dominant-baseline="ideographic">Estratégica</tspan></text></g></g></g><g id="g-root-arro_1cw4wu2xvwutp-fill" data-item-order="1000000000" transform="translate(291, 435)"></g><g id="g-root-2_1hfp9h6xwcb2e-fill" data-item-order="1000000000" transform="translate(447, 435)"></g><g id="g-root-tx_dirigeal_1hf2ypmxvznkf-fill" data-item-order="1000000000" transform="translate(93, 483)"><g id="tx_dirigeal_1hf2ypmxvznkf-fill" stroke="none" fill="#484848"><g><text style="font: 15px Roboto, sans-serif; white-space: pre;" font-size="15px" font-family="Roboto, sans-serif"><tspan x="34.14" y="28" dominant-baseline="ideographic">Dirige a los clientes </tspan><tspan x="11.58" y="46" dominant-baseline="ideographic">reales  a dejar reseñas, </tspan><tspan x="32.06" y="64" dominant-baseline="ideographic">like o follows en tus </tspan><tspan x="126.94" y="82" dominant-baseline="ideographic">redes</tspan></text></g></g></g><g id="g-root-tx_mejorand_dg2lvexw5afh-fill" data-item-order="1000000000" transform="translate(106, 15)"><g id="tx_mejorand_dg2lvexw5afh-fill" stroke="none" fill="#484848"><g><text style="font: bold 20px Roboto, sans-serif; white-space: pre;" font-weight="bold" font-size="20px" font-family="Roboto, sans-serif"><tspan x="15.59" y="34" dominant-baseline="ideographic">Utilizando feedback de clientes reales en la toma de decisiones y </tspan><tspan x="155.81" y="58" dominant-baseline="ideographic">posicionando en canales publicos</tspan></text></g></g></g><g id="g-root-tx_proporci_1qapyyixvzmrq-fill" data-item-order="1000000000" transform="translate(15, 315)"><g id="tx_proporci_1qapyyixvzmrq-fill" stroke="none" fill="#484848"><g><text style="font: 15px Roboto, sans-serif; white-space: pre;" font-size="15px" font-family="Roboto, sans-serif"><tspan x="20.41" y="28" dominant-baseline="ideographic">Proporciona métricas </tspan><tspan x="15.09" y="46" dominant-baseline="ideographic">clave de forma regular</tspan></text></g></g></g><g id="g-root-0.cu_sy_18i6nnexw59n2-stroke" data-item-order="999849261" transform="translate(278.00885009765625, 207)"><g id="0.cu_sy_18i6nnexw59n2-stroke" fill="none" stroke-linecap="round" stroke-linejoin="round" stroke-miterlimit="4" stroke="#808080" stroke-width="2"><g><path d="M 41.8313 44.4598C 26.76 59.2893 15.5897 78.0715 10 99.1266M 10 160.8734C 15.625 182.0616 26.9016 200.9481 42.1177 215.8211M 93.3555 245.5088C 103.7319 248.4347 114.6787 250 125.9911 250C 136.9428 250 147.5518 248.5329 157.6324 245.7846M 209.6662 216.0146C 224.6048 201.4798 235.7702 183.0868 241.5537 162.4445M 241.5536 97.5554C 235.8074 77.0458 224.748 58.7566 209.9536 44.266M 157.5289 14.1873C 147.4793 11.4571 136.9054 10 125.9911 10C 114.7164 10 103.8049 11.5549 93.4592 14.462"></path></g></g></g><g id="g-root-6.cu_sy_142d5iyxw5afb-stroke" data-item-order="999849265" transform="translate(268.5610656738281, 145.5615234375)"><g id="6.cu_sy_142d5iyxw5afb-stroke" fill="none" stroke-linecap="round" stroke-linejoin="round" stroke-miterlimit="4" stroke="#7f64ea" stroke-width="2"><g><path d="M 45.585069 104.372569C 33.719169 101.193169 23.066269 93.487169 16.438769 82.007969C 3.183969 59.049969 11.049969 29.693569 34.007969 16.438769C 56.966069 3.183969 86.322369 11.049969 99.577169 34.007969C 106.204669 45.486969 107.551869 58.565569 104.372469 70.431269L 91.949469 116.795869L 45.595669 104.375369C 45.592169 104.374469 45.588569 104.373469 45.585069 104.372569Z"></path></g></g></g><g id="g-root-5.cu_sy_142d5iyxw5afc-stroke" data-item-order="999849269" transform="translate(193, 279)"><g id="5.cu_sy_142d5iyxw5afc-stroke" fill="none" stroke-linecap="round" stroke-linejoin="round" stroke-miterlimit="4" stroke="#e0cb15" stroke-width="2"><g><path d="M 91.9414 91.9408C 83.2551 100.6273 71.255 106 58 106C 31.4903 106 10 84.5097 10 58C 10 31.4903 31.4903 10 58 10C 71.2548 9.999999 83.2548 15.3726 91.9411 24.0589L 125.8825 57.9997L 91.9492 91.9331C 91.9466 91.9356 91.944 91.9382 91.9414 91.9408Z"></path></g></g></g><g id="g-root-4.cu_sy_zmjneixw5b7l-stroke" data-item-order="999849273" transform="translate(268.5610656738281, 402)"><g id="4.cu_sy_zmjneixw5b7l-stroke" fill="none" stroke-linecap="round" stroke-linejoin="round" stroke-miterlimit="4" stroke="#1eabda" stroke-width="2"><g><path d="M 104.372369 56.3644C 107.551869 68.2302 106.204669 81.309 99.577169 92.7881C 86.322369 115.7462 56.966069 123.6122 34.007969 110.3574C 11.049969 97.1025 3.183969 67.7462 16.438769 44.7881C 23.066169 33.3091 33.718969 25.6031 45.584669 22.4237L 91.948969 10L 104.369469 56.3538C 104.370369 56.3573 104.371369 56.3609 104.372369 56.3644Z"></path></g></g></g><g id="g-root-3.cu_sy_qrj48qxw58ui-stroke" data-item-order="999849277" transform="translate(422.50244140625, 402)"><g id="3.cu_sy_qrj48qxw58ui-stroke" fill="none" stroke-linecap="round" stroke-linejoin="round" stroke-miterlimit="4" stroke="#e55753" stroke-width="2"><g><path d="M 11.6437 56.3644C 8.4641 68.2302 9.8113 81.309 16.4388 92.7881C 29.6936 115.7462 59.05 123.6122 82.008 110.3574C 104.9661 97.1025 112.8321 67.7462 99.5772 44.7881C 92.9498 33.3091 82.297 25.6031 70.4313 22.4237L 24.067 10L 11.6465 56.3538C 11.6456 56.3573 11.6446 56.3609 11.6437 56.3644Z"></path></g></g></g><g id="g-root-2.cu_sy_qrj48qxw58uj-stroke" data-item-order="999849281" transform="translate(477.11767578125, 279)"><g id="2.cu_sy_qrj48qxw58uj-stroke" fill="none" stroke-linecap="round" stroke-linejoin="round" stroke-miterlimit="4" stroke="#92bd39" stroke-width="2"><g><path d="M 43.9411 91.9408C 52.6274 100.6273 64.6276 106 77.8825 106C 104.3922 106 125.8825 84.5097 125.8825 58C 125.8825 31.4903 104.3922 10 77.8825 10C 64.6277 9.999999 52.6277 15.3726 43.9414 24.0589L 10 57.9997L 43.9333 91.9331C 43.9359 91.9356 43.9385 91.9382 43.9411 91.9408Z"></path></g></g></g><g id="g-root-1.cu_sy_mbpm4axw59ms-stroke" data-item-order="999849285" transform="translate(422.50244140625, 145.5615234375)"><g id="1.cu_sy_mbpm4axw59ms-stroke" fill="none" stroke-linecap="round" stroke-linejoin="round" stroke-miterlimit="4" stroke="#3cc583" stroke-width="2"><g><path d="M 70.430869 104.372569C 82.296769 101.193169 92.949669 93.487169 99.577169 82.007969C 112.832069 59.049969 104.966069 29.693569 82.007969 16.438769C 59.049969 3.183969 29.693569 11.049969 16.438769 34.007969C 9.811369 45.486969 8.464169 58.565569 11.643569 70.431269L 24.066469 116.795869L 70.420269 104.375369C 70.423769 104.374469 70.427369 104.373469 70.430869 104.372569Z"></path></g></g></g><g id="g-root-book_9093qyxw5b7q-stroke" data-item-order="1000000000" transform="translate(291, 171)"><g id="book_9093qyxw5b7q-stroke" fill="none" stroke-linecap="round" stroke-linejoin="round" stroke-miterlimit="4" stroke="#7f64ea" stroke-width="2"><g><path d="M 38.300201 56.5L 52.9002 56.5C 54.9002 56.5 56.500198 54.900002 56.500198 52.900002L 56.500198 38.299999C 56.500198 36.299999 54.9002 34.700001 52.9002 34.700001L 38.300201 34.700001C 36.300201 34.700001 34.700199 36.299999 34.700199 38.299999L 34.700199 52.900002C 34.700199 54.900002 36.300201 56.5 38.300201 56.5ZM 10 10M 56.500198 49.099998L 34.700199 49.099998M 49.300201 49.099998L 49.300201 56.5M 41.9002 49.099998L 41.9002 56.5M 45.700199 34.687599L 45.700199 30.7188M 45.700199 30.700001C 43.712002 30.700001 42.100201 29.088221 42.100201 27.1C 42.100201 25.11178 43.712002 23.5 45.700199 23.5C 47.688599 23.5 49.300201 25.11178 49.300201 27.1C 49.300201 29.088221 47.688599 30.700001 45.700199 30.700001ZM 26.900101 45.319199C 23.7001 44.119202 19.500099 43.119202 14.1001 42.7192C 12.5001 42.7192 11.5001 41.319199 11.5001 39.919201L 11.5001 14.319099C 11.5001 12.7191 12.9001 11.319106 14.5001 11.519106C 27.1001 12.119101 33.099998 17.319099 33.099998 20.119099M 54.700199 25.5191L 54.700199 14.319099C 54.700199 12.7191 53.300201 11.319106 51.700199 11.519106C 39.100201 12.119101 33.100201 17.319099 33.100201 20.119099M 33.099998 20.11908L 33.099998 27.519079M 40.906799 44.700199C 39.791599 44.700199 38.887398 43.7962 38.887398 42.680801C 38.887398 41.565598 39.791599 40.6614 40.906799 40.6614C 42.022202 40.6614 42.926201 41.565598 42.926201 42.680801C 42.926201 43.7962 42.022202 44.700199 40.906799 44.700199ZM 50.493801 44.700199C 49.378399 44.700199 48.4744 43.7962 48.4744 42.680801C 48.4744 41.565598 49.378399 40.6614 50.493801 40.6614C 51.609001 40.6614 52.513199 41.565598 52.513199 42.680801C 52.513199 43.7962 51.609001 44.700199 50.493801 44.700199Z"></path></g></g></g><g id="g-root-1_1qapvsqxw83rb-stroke" data-item-order="1000000000" transform="translate(447, 171)"><g id="1_1qapvsqxw83rb-stroke" fill="none" stroke-linecap="round" stroke-linejoin="round" stroke-miterlimit="4" stroke="#3cc583" stroke-width="2"><g><path d="M 37 47C 37 52.522846 41.477154 57 47 57C 52.522846 57 57 52.522846 57 47C 57 41.477154 52.522846 37 47 37C 41.477154 37 37 41.477154 37 47ZM 10 10M 43 48L 45.166 50.166C 45.373859 50.373539 45.662449 50.479195 45.955173 50.454929C 46.247898 50.430664 46.515152 50.278931 46.686001 50.040001L 51 44M 11 37C 11.019445 35.143372 11.403379 33.308643 12.13 31.6C 12.93 30 16.256001 28.9 20.436001 27.351999C 21.566 26.934 21.380001 23.984001 20.880001 23.431999C 19.268551 21.685833 18.479071 19.334854 18.709999 16.969999C 18.565205 15.46426 19.052738 13.966075 20.055944 12.833911C 21.059151 11.701747 22.487778 11.037463 24 11C 25.512222 11.037463 26.940847 11.701747 27.944054 12.833911C 28.947262 13.966075 29.434793 15.46426 29.289999 16.969999C 29.521515 19.335524 28.731993 21.687351 27.119999 23.433998C 26.620001 23.986 26.434 26.936001 27.563999 27.354C 31.743999 28.902 35.071999 30.007999 35.870003 31.601999C 36.596619 33.310646 36.980553 35.14537 37 37.001999ZM 31.823999 11.474C 32.506039 11.159061 33.248764 10.997273 34 11C 35.512222 11.037463 36.940849 11.701747 37.944054 12.833911C 38.947262 13.966075 39.434792 15.46426 39.290001 16.969999C 39.521515 19.335524 38.731995 21.687351 37.119999 23.433998C 36.620003 23.986 36.433998 26.936001 37.563999 27.354C 41.743999 28.902 45.071999 30.007999 45.869999 31.601999C 46.089653 32.052624 46.270962 32.520947 46.412003 33.001999"></path></g></g></g><g id="g-root-tx_aseguraq_zoffayxvzmru-stroke" data-item-order="1000000000" transform="translate(537, 147)"></g><g id="g-root-tx_actualiz_1ursf96xvzo5q-stroke" data-item-order="1000000000" transform="translate(15, 255)"></g><g id="g-root-tx_encuesta_v8lx6ixvznk3-stroke" data-item-order="1000000000" transform="translate(615, 255)"></g><g id="g-root-grea_v9us6yxwgjrf-stroke" data-item-order="1000000000" transform="translate(345, 279)"><g id="grea_v9us6yxwgjrf-stroke" fill="none" stroke-linecap="round" stroke-linejoin="round" stroke-miterlimit="4" stroke="#4e88e7" stroke-width="2"><g><path d="M 22.548 39.563999C 29.749182 19.899158 50.336483 8.543888 70.810959 12.943756C 91.285431 17.343624 105.390259 36.154068 103.877014 57.041222C 102.363762 77.928368 85.694862 94.509293 64.800003 95.912003M 51 44C 50.447716 44 50 43.552284 50 43C 50 42.447716 50.447716 42 51 42C 51.552284 42 52 42.447716 52 43C 52 43.552284 51.552284 44 51 44M 87 44C 86.447716 44 86 43.552284 86 43C 86 42.447716 86.447716 42 87 42C 87.552284 42 88 42.447716 88 43C 88 43.552284 87.552284 44 87 44M 82.711998 57.967999C 83.719444 57.93586 84.683151 58.380268 85.312813 59.167351C 85.942482 59.95443 86.164505 60.992184 85.912003 61.968002C 83.514206 70.617256 74.623825 75.746048 65.936005 73.492004C 60.190365 72.093147 55.662155 67.676842 54.119999 61.967999C 53.909245 61.13752 54.040333 60.257206 54.483917 59.524166C 54.927502 58.791122 55.646526 58.266586 56.48 58.068001C 56.749535 58.001057 57.026272 57.967472 57.303997 57.967999ZM 18 68.839996L 15.392 60.872002C 14.30742 57.576138 16.097481 54.024654 19.392 52.936001L 19.392 52.936001C 22.693489 51.855526 26.245939 53.655025 27.327999 56.955997L 29.940001 64.923996M 43.388 65.548004L 43.352001 65.436005C 42.550037 62.992573 39.920296 61.660694 37.475998 62.459999L 30.4 64.800003L 27.5 65.748001L 22.456001 67.403999C 14.504768 70.008865 10.164581 78.560379 12.756001 86.516006L 15.064 93.552002C 17.672041 101.510452 26.236599 105.849136 34.195999 103.244003L 39.239998 101.599998L 49.240002 98.332001C 51.683956 97.528267 53.01553 94.897339 52.216 92.452003L 52.18 92.344002C 51.796593 91.169189 50.961857 90.194992 49.859695 89.636032C 48.75753 89.077072 47.478367 88.97921 46.304001 89.364006C 48.747425 88.562035 50.079304 85.932297 49.279999 83.487999L 49.243999 83.375999C 48.442078 80.930489 45.809517 79.598091 43.363998 80.400002C 44.538818 80.016594 45.513016 79.181862 46.071976 78.079697C 46.630936 76.977531 46.728798 75.698364 46.344002 74.524002L 46.292 74.400002C 45.488266 71.956039 42.857334 70.624466 40.412003 71.423996C 41.586723 71.04068 42.560673 70.205734 43.11898 69.103378C 43.677292 68.001007 43.774082 66.721817 43.388 65.548004ZM 30.4 64.800003L 37.484001 62.48C 39.928299 61.680695 42.558037 63.012573 43.360001 65.455994L 43.396 65.568001C 44.182961 68.012192 42.842587 70.632095 40.400002 71.424004L 33.316002 73.744003M 33.327999 73.744003L 40.412003 71.423996C 42.857334 70.624466 45.488266 71.956039 46.292 74.400002L 46.327999 74.512001C 46.716496 75.687912 46.62051 76.970154 46.061272 78.075119C 45.502033 79.180084 44.525623 80.016724 43.348 80.400002L 36.267998 82.720001M 36.267998 82.708L 43.348 80.388C 45.793514 79.58609 48.426075 80.918488 49.228001 83.363998L 49.264 83.475998C 50.063301 85.920296 48.731426 88.550034 46.287998 89.351997L 39.200001 91.676003M 39.200001 91.676003L 46.284 89.351997C 47.458366 88.967209 48.73753 89.065071 49.839695 89.624031C 50.941856 90.182991 51.776592 91.157188 52.160004 92.332001L 52.195999 92.440002C 52.995529 94.885338 51.663956 97.516266 49.220001 98.32L 42.136002 100.639999"></path></g></g></g><g id="g-root-tx_ofrecean_1upwzzuxvzp59-stroke" data-item-order="1000000000" transform="translate(93, 147)"></g><g id="g-root-tx_abordala_1cz9gl6xvzoco-stroke" data-item-order="1000000000" transform="translate(537, 483)"></g><g id="g-root-2_1lpwenuxvy9sa-stroke" data-item-order="1000000000" transform="translate(213, 303)"><g id="2_1lpwenuxvy9sa-stroke" fill="none" stroke-linecap="round" stroke-linejoin="round" stroke-miterlimit="4" stroke="#e0cb15" stroke-width="2"><g><path d="M 56.5 32.3186L 56.5 20.5C 56.5 18.9 55.099998 17.5 53.5 17.5L 14.5 17.5C 12.9 17.5 11.5 18.9 11.5 20.5L 11.5 53.5C 11.5 55.099998 12.9 56.5 14.5 56.5L 26.06492 56.5M 11.5 29.5L 56.5 29.5M 11.5 38.5L 44.5 38.5M 11.5 47.5L 26.32032 47.5M 23.5 21.9L 23.5 11.5M 10 10M 26.32032 47.5L 26.32032 29.5M 44.5 21.9L 44.5 11.5M 53.5 38.5L 44.5 52L 56.5 52M 10 10M 53.498001 38.5L 53.498001 56.5M 10 10M 31.546801 48.923801L 39.123001 56.5M 10 10M 39.121002 48.923801L 31.545 56.5"></path></g></g></g><g id="g-root-appr_1czvuiixvznk4-stroke" data-item-order="1000000000" transform="translate(520, 303)"><g id="appr_1czvuiixvznk4-stroke" fill="none" stroke-linecap="round" stroke-linejoin="round" stroke-miterlimit="4" stroke="#92bd39" stroke-width="2"><g><path d="M 26 29L 26 18C 26 16.895432 26.89543 16 28 16L 54 16C 55.104568 16 56 16.895432 56 18L 56 54C 56 55.104568 55.104568 56 54 56L 35 56M 44.858002 15C 44.410473 13.234376 42.821457 11.997873 41 11.997873C 39.178543 11.997873 37.589527 13.234376 37.141998 15L 33 15L 33 21L 49 21L 49 15ZM 12 45C 12 51.075134 16.924868 56 23 56C 29.075132 56 34 51.075134 34 45C 34 38.92487 29.075132 34 23 34C 16.924868 34 12 38.92487 12 45M 19 46L 21 49L 28 42M 33 28L 49 28M 38 35L 49 35M 42 42L 49 42M 42 49L 49 49"></path></g></g></g><g id="g-root-tx_encuesta_1cz9gl6xvzocp-stroke" data-item-order="1000000000" transform="translate(615, 315)"></g><g id="g-root-tx_clientes_meuc6yxvznd6-stroke" data-item-order="1000000000" transform="translate(537, 87)"></g><g id="g-root-tx_informes_zpodh6xvzoy0-stroke" data-item-order="1000000000" transform="translate(81, 87)"></g><g id="g-root-tx_cortafue_vahcfuxvzmkh-stroke" data-item-order="1000000000" transform="translate(537, 399)"></g><g id="g-root-tx_redirecc_v8lx6ixvznk4-stroke" data-item-order="1000000000" transform="translate(129, 423)"></g><g id="g-root-arro_1cw4wu2xvwutp-stroke" data-item-order="1000000000" transform="translate(291, 435)"><g id="arro_1cw4wu2xvwutp-stroke" fill="none" stroke-linecap="round" stroke-linejoin="round" stroke-miterlimit="4" stroke="#1eabda" stroke-width="2"><g><path d="M 22.521999 51.883999L 22.521999 54.854M 33.043999 55.91C 33.04467 50.098389 28.333614 45.386787 22.521999 45.386787C 16.710386 45.386787 11.999331 50.098389 12 55.91M 15.156 34.785999C 15.155649 38.869843 18.453623 42.180637 22.521999 42.180637C 26.590378 42.180637 29.888351 38.869843 29.888 34.785999C 29.888351 30.702156 26.590378 27.391361 22.521999 27.391361C 18.453623 27.391361 15.155649 30.702156 15.156 34.785999M 16.638 30.35C 18.815023 32.454323 21.704979 33.661148 24.732 33.73C 26.406998 33.736118 28.071022 33.459572 29.654001 32.912003M 31.690001 26.188C 33.859634 22.722315 38.379192 21.589001 41.927383 23.620899C 45.475578 25.6528 46.78545 30.124382 44.894417 33.749611C 43.003384 37.37484 38.586674 38.859253 34.889999 37.112M 45.82 22.268L 45.312 16.67L 49.891998 12.09L 51.419998 16.67L 56 18.198L 51.419998 22.778L 45.82 22.268ZM 46.080002 22.436001L 38.059998 30.455999M 50.251999 22.666C 53.802345 28.222879 53.146019 35.477406 48.65601 40.306862C 44.165997 45.136318 36.978443 46.318676 31.177999 43.181999M 25.466 23.336C 27.380856 19.952038 30.576672 17.480785 34.333553 16.478926C 38.090435 15.477066 42.092415 16.028856 45.438004 18.01"></path></g></g></g><g id="g-root-2_1hfp9h6xwcb2e-stroke" data-item-order="1000000000" transform="translate(447, 435)"><g id="2_1hfp9h6xwcb2e-stroke" fill="none" stroke-linecap="round" stroke-linejoin="round" stroke-miterlimit="4" stroke="#e55753" stroke-width="2"><g><path d="M 57 11L 11 57M 52 26.024L 52 42C 52 44.209141 50.209141 46 48 46L 43 46L 43 53L 33.200001 46L 30 46M 51 17L 20 17C 17.790861 17 16 18.790861 16 21L 16 42C 16 44.209141 17.790861 46 20 46L 22 46"></path></g></g></g><g id="g-root-tx_dirigeal_1hf2ypmxvznkf-stroke" data-item-order="1000000000" transform="translate(93, 483)"></g><g id="g-root-tx_mejorand_dg2lvexw5afh-stroke" data-item-order="1000000000" transform="translate(106, 15)"></g><g id="g-root-tx_proporci_1qapyyixvzmrq-stroke" data-item-order="1000000000" transform="translate(15, 315)"></g></g></g></svg>